<?xml version="1.0" encoding="UTF-8" standalone="no"?>
<!DOCTYPE svg PUBLIC "-//W3C//DTD SVG 1.0//EN"
 "http://www.w3.org/TR/2001/REC-SVG-20010904/DTD/svg10.dtd" [
 <!ATTLIST svg xmlns:xlink CDATA #FIXED "http://www.w3.org/1999/xlink">
]>
<!-- Generated by Graphviz version 2.20.2 (Sun Oct 12 22:28:10 UTC 2008)
     For user: (root) root -->
<!-- Title: Exim4uGuiArchi Pages: 1 -->
<svg width="399pt" height="433pt"
 viewBox="0.00 0.00 399.00 433.00" xmlns="http://www.w3.org/2000/svg" xmlns:xlink="http://www.w3.org/1999/xlink">
<g id="graph0" class="graph" transform="scale(1 1) rotate(0) translate(4 429)">
<title>Exim4uGuiArchi</title>
<polygon style="fill:white;stroke:white;" points="-4,4 -4,-429 395,-429 395,4 -4,4"/>
<text text-anchor="middle" x="195" y="-8.3" style="font-family:Times New Roman;font-size:18.00;">Exim4u GUI Architecture</text>
<!-- userService -->
<g id="node2" class="node"><title>userService</title>
<ellipse style="fill:#cdc0b0;stroke:#cdc0b0;" cx="195" cy="-119" rx="55.7874" ry="18"/>
<text text-anchor="middle" x="195" y="-114.9" style="font-family:Times New Roman;font-size:14.00;">userService</text>
</g>
<!-- baseClasses -->
<g id="node4" class="node"><title>baseClasses</title>
<ellipse style="fill:#cdc0b0;stroke:#cdc0b0;" cx="279" cy="-47" rx="112.071" ry="18"/>
<text text-anchor="middle" x="279" y="-42.9" style="font-family:Times New Roman;font-size:14.00;">Email4u, MailingList4u, ...</text>
</g>
<!-- userService&#45;&gt;baseClasses -->
<g id="edge5" class="edge"><title>userService&#45;&gt;baseClasses</title>
<path style="fill:none;stroke:black;" d="M215,-102C226,-93 239,-81 250,-72"/>
<polygon style="fill:black;stroke:black;" points="252.779,-74.2191 258,-65 248.169,-68.9511 252.779,-74.2191"/>
</g>
<!-- groupService -->
<g id="node3" class="node"><title>groupService</title>
<ellipse style="fill:#cdc0b0;stroke:#cdc0b0;" cx="253" cy="-191" rx="62.0391" ry="18"/>
<text text-anchor="middle" x="253" y="-186.9" style="font-family:Times New Roman;font-size:14.00;">groupService</text>
</g>
<!-- groupService&#45;&gt;userService -->
<g id="edge3" class="edge"><title>groupService&#45;&gt;userService</title>
<path style="fill:none;stroke:black;" d="M239,-173C232,-164 223,-154 216,-145"/>
<polygon style="fill:black;stroke:black;" points="218.219,-142.221 209,-137 212.951,-146.831 218.219,-142.221"/>
</g>
<!-- groupService&#45;&gt;baseClasses -->
<g id="edge7" class="edge"><title>groupService&#45;&gt;baseClasses</title>
<path style="fill:none;stroke:black;" d="M256,-173C260,-148 269,-104 274,-75"/>
<polygon style="fill:black;stroke:black;" points="277.471,-75.4922 276,-65 270.607,-74.1194 277.471,-75.4922"/>
</g>
<!-- appContext -->
<g id="node5" class="node"><title>appContext</title>
<ellipse style="fill:none;stroke:black;" cx="74" cy="-335" rx="73.8534" ry="18"/>
<text text-anchor="middle" x="74" y="-330.9" style="font-family:Times New Roman;font-size:14.00;">appContext.php</text>
</g>
<!-- guiFunctions -->
<g id="node6" class="node"><title>guiFunctions</title>
<ellipse style="fill:lightgreen;stroke:lightgreen;" cx="253" cy="-263" rx="128.053" ry="18"/>
<text text-anchor="middle" x="253" y="-258.9" style="font-family:Times New Roman;font-size:14.00;">group.js, ajaxLayer/group.php</text>
</g>
<!-- guiFunctions&#45;&gt;userService -->
<g id="edge11" class="edge"><title>guiFunctions&#45;&gt;userService</title>
<path style="fill:none;stroke:black;" d="M218,-245C204,-237 190,-224 182,-209 173,-190 177,-165 183,-146"/>
<polygon style="fill:black;stroke:black;" points="186.137,-147.56 187,-137 179.74,-144.717 186.137,-147.56"/>
</g>
<!-- guiFunctions&#45;&gt;groupService -->
<g id="edge13" class="edge"><title>guiFunctions&#45;&gt;groupService</title>
<path style="fill:none;stroke:black;" d="M253,-245C253,-237 253,-228 253,-219"/>
<polygon style="fill:black;stroke:black;" points="256.5,-219 253,-209 249.5,-219 256.5,-219"/>
</g>
<!-- guiFunctions&#45;&gt;baseClasses -->
<g id="edge9" class="edge"><title>guiFunctions&#45;&gt;baseClasses</title>
<path style="fill:none;stroke:black;" d="M288,-245C302,-237 317,-224 324,-209 346,-164 319,-107 298,-74"/>
<polygon style="fill:black;stroke:black;" points="300.459,-71.3791 292,-65 294.635,-75.262 300.459,-71.3791"/>
</g>
<!-- adminGroupGuiTemplate -->
<g id="node7" class="node"><title>adminGroupGuiTemplate</title>
<ellipse style="fill:lightgreen;stroke:lightgreen;" cx="253" cy="-335" rx="87.0549" ry="18"/>
<text text-anchor="middle" x="253" y="-330.9" style="font-family:Times New Roman;font-size:14.00;">admingroup.tpl.php</text>
</g>
<!-- adminGroupGuiTemplate&#45;&gt;guiFunctions -->
<g id="edge15" class="edge"><title>adminGroupGuiTemplate&#45;&gt;guiFunctions</title>
<path style="fill:none;stroke:black;" d="M253,-317C253,-309 253,-300 253,-291"/>
<polygon style="fill:black;stroke:black;" points="256.5,-291 253,-281 249.5,-291 256.5,-291"/>
</g>
<!-- adminGroupGui -->
<g id="node8" class="node"><title>adminGroupGui</title>
<ellipse style="fill:none;stroke:black;" cx="163" cy="-407" rx="89.8356" ry="18"/>
<text text-anchor="middle" x="163" y="-402.9" style="font-family:Times New Roman;font-size:14.00;">admingroupnew.php</text>
</g>
<!-- adminGroupGui&#45;&gt;appContext -->
<g id="edge19" class="edge"><title>adminGroupGui&#45;&gt;appContext</title>
<path style="fill:none;stroke:black;" d="M141,-389C130,-380 116,-369 104,-359"/>
<polygon style="fill:black;stroke:black;" points="105.831,-355.951 96,-352 101.221,-361.219 105.831,-355.951"/>
</g>
<!-- adminGroupGui&#45;&gt;adminGroupGuiTemplate -->
<g id="edge17" class="edge"><title>adminGroupGui&#45;&gt;adminGroupGuiTemplate</title>
<path style="fill:none;stroke:black;" d="M185,-389C196,-380 211,-369 223,-359"/>
<polygon style="fill:black;stroke:black;" points="225.1,-361.8 231,-353 220.9,-356.2 225.1,-361.8"/>
</g>
</g>
</svg>
